<svg width="35" height="40" viewBox="0 0 35 40" fill="none" xmlns="http://www.w3.org/2000/svg">
<g clip-path="url(#clip0_872_788)">
<path d="M16.1222 40V23.7621L0.833252 18.9033V33.1798C0.833252 33.6535 1.11923 34.0805 1.55651 34.2591L14.9606 39.7306C14.9611 39.7306 15.6887 40 16.1222 40Z" fill="url(#paint0_linear_872_788)"/>
<path d="M16.1221 22.7076V40C16.3353 40 16.5908 39.8892 16.7954 39.777L17.1637 39.543L28.4599 32.3641C28.7488 32.1807 28.9234 31.8617 28.9234 31.5188V19.4171L16.1221 22.7076Z" fill="url(#paint1_linear_872_788)"/>
<path opacity="0.3" d="M28.9239 22.4306L27.6472 18.7332L19.009 22.5022L21.2782 22.8351L22.0729 36.6546L21.6261 22.7124L28.9239 23.2979V22.4306Z" fill="#990028"/>
<path d="M0.833252 18.9033L16.1222 23.7621L28.8806 18.1955L14.2345 13.3305L0.833252 18.9033Z" fill="url(#paint2_linear_872_788)"/>
<path d="M21.4895 19.335L22.0729 36.6541L25.4751 34.4921C25.6673 34.3699 25.7848 34.1583 25.7867 33.93C25.8096 31.5006 25.929 17.7967 25.7472 17.3306L21.4738 19.3087L21.4895 19.335Z" fill="url(#paint3_linear_872_788)"/>
<path opacity="0.5" d="M21.5999 18.9033L21.7046 22.7491L25.8462 23.1579V19.6115L21.5999 18.9033Z" fill="url(#paint4_linear_872_788)"/>
<path d="M1.734 18.9037L16.0413 23.4507L27.9798 18.2413L14.3016 13.6418L1.734 18.9037Z" fill="#9E0249"/>
<path d="M22.4897 4.53313L10.573 1.24743C10.357 1.18774 10.1262 1.26272 9.98585 1.43846L7.09613 5.05273C6.86821 5.33784 6.84822 5.73757 7.04712 6.04369L15.22 18.6511C15.8371 19.6034 16.8192 20.2567 17.9336 20.4568L30.6245 22.7363C30.9281 22.7907 31.2374 22.6747 31.4306 22.433L34.1057 19.0871C34.1837 18.9892 34.188 18.8517 34.1157 18.7495L25.6792 6.7782C24.9064 5.68217 23.7792 4.88844 22.4897 4.53313Z" fill="url(#paint5_linear_872_788)"/>
<path d="M17.9332 20.4563L30.624 22.7358C30.9276 22.7902 31.2369 22.6742 31.4301 22.4325L34.1052 19.0867C34.1832 18.9888 34.1875 18.8512 34.1152 18.749L32.3441 16.236L20.9314 13.6414L16.1307 19.6464C16.6517 20.0552 17.2689 20.3369 17.9332 20.4563Z" fill="url(#paint6_linear_872_788)"/>
<path opacity="0.9" d="M18.8144 13.7469C19.4182 14.6314 20.3195 15.268 21.353 15.5393L34.1656 18.9028C34.1642 18.8488 34.148 18.7954 34.1152 18.749L32.5611 16.5441L25.6787 6.77773C24.9065 5.68171 23.7792 4.88846 22.4897 4.53267L20.9485 4.10763L10.573 1.24697C10.4759 1.22023 10.377 1.22214 10.2837 1.24602L18.8144 13.7469Z" fill="url(#paint7_linear_872_788)"/>
<path opacity="0.3" d="M25.5031 16.6291L24.3188 21.6034L25.8215 21.8828L25.6349 16.7661L25.5031 16.6291Z" fill="#990028"/>
<path d="M18.497 8.93729L15.5031 8.89526C15.5031 8.89526 14.3031 9.73865 13.0407 12.2894C13.0407 12.2894 12.6272 11.1107 12.7871 9.67418L10.8842 9.61592C10.8842 9.61592 11.843 6.92814 13.6474 6.17596L18.2367 7.35604L19.8912 8.7859L18.497 8.93729Z" fill="url(#paint8_linear_872_788)"/>
<path d="M25.9214 12.8601L28.8806 17.5154C28.8806 17.5154 27.5621 21.3503 27.9798 23.9006L26.9825 22.7492C26.9825 22.7492 25.7282 24.5649 25.5031 25.4594C25.5031 25.4594 24.1846 22.6899 25.5031 16.6291L23.8306 12.3433L23.6603 11.3786L24.7237 11.4799L25.9214 12.8601Z" fill="url(#paint9_linear_872_788)"/>
<path d="M24.2393 10.2062C24.2393 10.2062 28.2915 7.7854 28.2097 6.61583C28.1278 5.44625 26.0727 4.50878 25.6882 4.19883C25.3038 3.88889 24.4844 2.95333 23.8587 2.80814C23.233 2.66296 22.1252 3.72222 21.9468 4.27095C21.7683 4.82016 21.2373 8.20232 21.2373 8.20232L24.2393 10.2062Z" fill="url(#paint10_linear_872_788)"/>
<path d="M24.3393 9.49893C24.3393 9.49893 31.5776 8.1665 32.9294 11.1179C35.3257 16.3497 31.4477 17.3402 30.8867 17.1802C29.6448 16.8254 23.4609 11.1996 23.4609 11.1996L24.3393 9.49893Z" fill="url(#paint11_linear_872_788)"/>
<path opacity="0.5" d="M32.6691 16.2508C32.6691 16.2508 34.0814 14.8606 31.9211 13.3071C29.7609 11.7535 24.3593 11.211 24.3593 11.211L24.1237 11.7917L30.6945 17.0837C30.6945 17.0832 31.5134 17.268 32.6691 16.2508Z" fill="url(#paint12_linear_872_788)"/>
<path d="M32.8766 15.9805C33.224 15.3912 33.0936 14.4165 31.7703 13.5678C29.2113 11.9264 23.9743 11.3146 23.9743 11.3146L23.6602 11.3786C24.5272 12.1561 28.0436 15.2718 30.5412 16.9524C30.7582 17.0765 30.8943 17.0999 31.0418 17.0894C31.5543 17.0531 32.5293 16.5698 32.8766 15.9805Z" fill="url(#paint13_linear_872_788)"/>
<path d="M21.8664 8.294C21.8664 8.294 21.5951 0.91313 18.4314 0.227815C12.8232 -0.987128 12.6995 3.02734 12.9769 3.54216C13.5912 4.68261 20.4027 9.5228 20.4027 9.5228L21.8664 8.294Z" fill="url(#paint14_linear_872_788)"/>
<path d="M21.3534 8.08626C21.3534 8.08626 20.9356 3.73462 20.3908 3.3583C19.846 2.98197 18.754 2.92991 18.9315 3.40414C19.1089 3.87837 20.8957 8.29735 20.8957 8.29735L21.3534 8.08626Z" fill="url(#paint15_linear_872_788)"/>
<path d="M25.0302 9.97887C25.0302 9.97887 29.3536 9.4459 29.8375 9.89768C30.3214 10.3495 30.6088 11.4087 30.1092 11.3376C29.6096 11.2664 24.9241 10.4727 24.9241 10.4727L25.0302 9.97887Z" fill="url(#paint16_linear_872_788)"/>
<path opacity="0.5" d="M13.4951 1.59462C13.4951 1.59462 14.5414 -0.0902561 16.5204 1.68965C18.4994 3.46956 20.1972 8.64501 20.1972 8.64501L19.6833 9.00176L13.1125 3.70978C13.1125 3.70978 12.7557 2.9471 13.4951 1.59462Z" fill="url(#paint17_linear_872_788)"/>
<path d="M13.713 1.33243C14.2112 0.864408 15.1871 0.780833 16.2996 1.89358C18.4504 4.04551 20.18 9.04474 20.18 9.04474L20.1857 9.36662C19.2417 8.6856 15.4493 5.91521 13.2738 3.83156C13.1063 3.64579 13.054 3.5178 13.0321 3.37071C12.956 2.86066 13.2148 1.80045 13.713 1.33243Z" fill="url(#paint18_linear_872_788)"/>
<path d="M21.6327 6.56279C21.9682 6.64637 24.5277 7.75004 25.5426 9.75298C26.0384 10.732 24.4401 13.3458 23.1402 13.9441C21.3572 14.7651 17.9451 11.211 17.858 10.3719C17.7714 9.53281 20.16 6.19697 21.6327 6.56279Z" fill="url(#paint19_linear_872_788)"/>
<path d="M23.1402 13.9442C23.8111 13.6352 24.561 12.7894 25.062 11.9083C25.0525 11.9111 23.6945 12.3109 21.5395 10.7401C19.5291 9.27493 19.2897 8.05951 19.266 7.89618C18.4432 8.8136 17.8128 9.93302 17.858 10.3719C17.9451 11.211 21.3572 14.7651 23.1402 13.9442Z" fill="url(#paint20_linear_872_788)"/>
<path d="M21.5823 6.78107C21.9178 6.86464 24.4773 7.96831 25.4922 9.97125C25.5974 10.179 25.6074 10.4612 25.5469 10.7812C25.6583 10.371 25.6716 10.0066 25.5431 9.753C24.5282 7.74958 21.9687 6.64591 21.6332 6.56282C20.23 6.21419 17.9964 9.2248 17.8642 10.2358C18.2291 9.07007 20.269 6.45489 21.5823 6.78107Z" fill="url(#paint21_linear_872_788)"/>
<path d="M23.7997 2.94665C24.4259 3.09231 25.2448 4.02787 25.6292 4.33734C26.0137 4.64728 28.0688 5.58475 28.1507 6.75433C28.1564 6.83647 28.1411 6.9253 28.1088 7.01843C28.1811 6.87325 28.2177 6.73761 28.2092 6.61536C28.1273 5.44578 26.0722 4.50831 25.6878 4.19836C25.3033 3.88842 24.4839 2.95286 23.8582 2.80767C23.232 2.66201 22.1247 3.72175 21.9463 4.27048C21.9458 4.27143 21.9458 4.27286 21.9454 4.27382C22.2347 3.70408 23.222 2.81245 23.7997 2.94665Z" fill="url(#paint22_linear_872_788)"/>
<path opacity="0.5" d="M25.5031 16.6291C24.1841 22.69 25.5031 25.4594 25.5031 25.4594C25.7282 24.5649 26.9825 22.7492 26.9825 22.7492L27.9794 23.9006C27.5611 21.3504 28.8801 17.5155 28.8801 17.5155L25.5031 16.6291Z" fill="url(#paint23_linear_872_788)"/>
<path opacity="0.5" d="M10.8842 9.61545L12.7871 9.67372C12.6272 11.1103 13.0407 12.2889 13.0407 12.2889C14.3031 9.73867 15.5031 8.89479 15.5031 8.89479L13.6474 6.17502C11.843 6.92767 10.8842 9.61545 10.8842 9.61545Z" fill="url(#paint24_linear_872_788)"/>
<path d="M14.6809 19.6917C14.5581 18.77 13.8653 18.0489 12.9584 17.8994C13.8739 17.7452 14.609 17.0202 14.7865 16.0975C14.9093 17.0192 15.6021 17.7404 16.509 17.8899C15.5935 18.0446 14.8579 18.7691 14.6809 19.6917Z" fill="white"/>
<path d="M15.9689 16.5646C15.9142 16.1558 15.6068 15.8358 15.2048 15.7694C15.6111 15.7011 15.9371 15.3792 16.0156 14.97C16.0703 15.3788 16.3777 15.6987 16.7797 15.7651C16.3739 15.8334 16.0474 16.1553 15.9689 16.5646Z" fill="white"/>
<path d="M5.39979 20.8981C5.34507 20.4893 5.03769 20.1693 4.63561 20.1029C5.04197 20.0346 5.36791 19.7127 5.44643 19.3035C5.50115 19.7123 5.80853 20.0322 6.21061 20.0986C5.80473 20.1674 5.47831 20.4888 5.39979 20.8981Z" fill="white"/>
<path d="M3.67729 19.4873C3.63732 19.1879 3.41225 18.9534 3.11771 18.9047C3.41511 18.8545 3.65445 18.6191 3.71203 18.3192C3.752 18.6186 3.97706 18.8531 4.2716 18.9018C3.97373 18.9515 3.73487 19.1874 3.67729 19.4873Z" fill="white"/>
<path opacity="0.7" d="M9.08224 27.2689C9.08224 29.3134 8.99422 37.5032 8.99422 37.5032L4.70699 31.1425L4.90065 24.5782L6.89438 25.4589L8.24574 24.1905C8.24621 24.1909 9.08224 25.2244 9.08224 27.2689Z" fill="url(#paint25_linear_872_788)"/>
<path d="M4.64132 35.7257C4.64132 35.7257 4.73363 29.9242 4.73363 28.2789C4.73363 26.6337 4.2716 24.5844 4.2716 24.5844C4.2716 24.5844 4.79121 24.9183 5.6025 25.8433C5.93986 25.6881 7.54436 24.1909 7.54436 24.1909C7.54436 24.1909 8.831 25.977 8.831 28.3878C8.831 30.7986 8.99516 37.5028 8.99516 37.5028L4.64132 35.7257Z" fill="url(#paint26_linear_872_788)"/>
</g>
<defs>
<linearGradient id="paint0_linear_872_788" x1="7.30943" y1="33.9221" x2="10.5492" y2="21.6155" gradientUnits="userSpaceOnUse">
<stop stop-color="#FF872E"/>
<stop offset="0.0669" stop-color="#FF7D33"/>
<stop offset="0.2925" stop-color="#FE6343"/>
<stop offset="0.5218" stop-color="#FD4F4D"/>
<stop offset="0.7556" stop-color="#FD4454"/>
<stop offset="1" stop-color="#FD4056"/>
</linearGradient>
<linearGradient id="paint1_linear_872_788" x1="25.6092" y1="34.9187" x2="17.2213" y2="20.8604" gradientUnits="userSpaceOnUse">
<stop stop-color="#FF1F1F"/>
<stop offset="0.0192" stop-color="#FE1E22"/>
<stop offset="0.2562" stop-color="#F5113C"/>
<stop offset="0.4974" stop-color="#EF0750"/>
<stop offset="0.7431" stop-color="#EB025B"/>
<stop offset="1" stop-color="#EA005F"/>
</linearGradient>
<linearGradient id="paint2_linear_872_788" x1="12.1733" y1="21.217" x2="21.4945" y2="12.0183" gradientUnits="userSpaceOnUse">
<stop stop-color="#FEB502"/>
<stop offset="0.9983" stop-color="#FFE900"/>
</linearGradient>
<linearGradient id="paint3_linear_872_788" x1="23.7621" y1="23.9101" x2="24.0213" y2="34.8" gradientUnits="userSpaceOnUse">
<stop stop-color="#FEB502"/>
<stop offset="1" stop-color="#FFE900"/>
</linearGradient>
<linearGradient id="paint4_linear_872_788" x1="23.7485" y1="20.3311" x2="23.8072" y2="22.7972" gradientUnits="userSpaceOnUse">
<stop stop-color="#FEB502"/>
<stop offset="1" stop-color="#FF872E"/>
</linearGradient>
<linearGradient id="paint5_linear_872_788" x1="10.848" y1="12.713" x2="30.3213" y2="11.2715" gradientUnits="userSpaceOnUse">
<stop stop-color="#FF872E"/>
<stop offset="0.097" stop-color="#FE7B3D"/>
<stop offset="0.3153" stop-color="#FB6457"/>
<stop offset="0.5373" stop-color="#F9546B"/>
<stop offset="0.7635" stop-color="#F84A76"/>
<stop offset="1" stop-color="#F8477A"/>
</linearGradient>
<linearGradient id="paint6_linear_872_788" x1="24.7517" y1="22.0823" x2="25.9201" y2="13.8185" gradientUnits="userSpaceOnUse">
<stop stop-color="#FF5837"/>
<stop offset="0.097" stop-color="#FB4936"/>
<stop offset="0.3153" stop-color="#F42F34"/>
<stop offset="0.5373" stop-color="#EE1B33"/>
<stop offset="0.7635" stop-color="#EB1032"/>
<stop offset="1" stop-color="#EA0C32"/>
</linearGradient>
<linearGradient id="paint7_linear_872_788" x1="29.6214" y1="10.7749" x2="18.9829" y2="9.74745" gradientUnits="userSpaceOnUse">
<stop stop-color="#FE5562"/>
<stop offset="0.2145" stop-color="#FE3F54"/>
<stop offset="0.4686" stop-color="#FD2B48"/>
<stop offset="0.7284" stop-color="#FD2041"/>
<stop offset="1" stop-color="#FD1C3F"/>
</linearGradient>
<linearGradient id="paint8_linear_872_788" x1="14.0482" y1="10.0191" x2="17.3908" y2="6.72045" gradientUnits="userSpaceOnUse">
<stop stop-color="#FFE239"/>
<stop offset="1" stop-color="#FFF080"/>
</linearGradient>
<linearGradient id="paint9_linear_872_788" x1="23.8347" y1="19.6133" x2="28.0555" y2="15.4479" gradientUnits="userSpaceOnUse">
<stop stop-color="#FFE239"/>
<stop offset="1" stop-color="#FFF080"/>
</linearGradient>
<linearGradient id="paint10_linear_872_788" x1="23.3444" y1="8.95453" x2="25.5777" y2="4.56819" gradientUnits="userSpaceOnUse">
<stop stop-color="#F96F08"/>
<stop offset="0.1471" stop-color="#FA8806"/>
<stop offset="0.3974" stop-color="#FCAD04"/>
<stop offset="0.6308" stop-color="#FEC702"/>
<stop offset="0.8387" stop-color="#FFD701"/>
<stop offset="1" stop-color="#FFDD01"/>
</linearGradient>
<linearGradient id="paint11_linear_872_788" x1="26.8275" y1="13.4178" x2="33.1361" y2="12.7596" gradientUnits="userSpaceOnUse">
<stop stop-color="#FEB502"/>
<stop offset="0.9983" stop-color="#FFE900"/>
</linearGradient>
<linearGradient id="paint12_linear_872_788" x1="33.1352" y1="14.0271" x2="24.9871" y2="14.2097" gradientUnits="userSpaceOnUse">
<stop stop-color="#F96F08"/>
<stop offset="1" stop-color="#FFBC00"/>
</linearGradient>
<linearGradient id="paint13_linear_872_788" x1="29.673" y1="11.9261" x2="27.4453" y2="14.6918" gradientUnits="userSpaceOnUse">
<stop stop-color="#F5416A"/>
<stop offset="1" stop-color="#FA7F05"/>
</linearGradient>
<linearGradient id="paint14_linear_872_788" x1="17.5126" y1="6.69445" x2="16.7866" y2="0.370458" gradientUnits="userSpaceOnUse">
<stop stop-color="#FDCD51"/>
<stop offset="1" stop-color="#FFE546"/>
</linearGradient>
<linearGradient id="paint15_linear_872_788" x1="19.9968" y1="4.61812" x2="20.4306" y2="7.16852" gradientUnits="userSpaceOnUse">
<stop stop-color="#FFD000" stop-opacity="0"/>
<stop offset="1" stop-color="#F86C05"/>
</linearGradient>
<linearGradient id="paint16_linear_872_788" x1="28.6914" y1="10.5504" x2="26.1168" y2="10.6797" gradientUnits="userSpaceOnUse">
<stop stop-color="#FFD000" stop-opacity="0"/>
<stop offset="1" stop-color="#F86C05"/>
</linearGradient>
<linearGradient id="paint17_linear_872_788" x1="15.5544" y1="0.64572" x2="17.1506" y2="8.66729" gradientUnits="userSpaceOnUse">
<stop stop-color="#F96F08"/>
<stop offset="1" stop-color="#FFBC00"/>
</linearGradient>
<linearGradient id="paint18_linear_872_788" x1="18.3476" y1="3.58329" x2="16.1199" y2="6.34897" gradientUnits="userSpaceOnUse">
<stop stop-color="#F5416A"/>
<stop offset="1" stop-color="#FA7F05"/>
</linearGradient>
<linearGradient id="paint19_linear_872_788" x1="21.6709" y1="14.2241" x2="21.8276" y2="6.03271" gradientUnits="userSpaceOnUse">
<stop stop-color="#FEB502"/>
<stop offset="1" stop-color="#FFF35A"/>
</linearGradient>
<linearGradient id="paint20_linear_872_788" x1="20.2109" y1="12.4215" x2="21.6543" y2="10.6038" gradientUnits="userSpaceOnUse">
<stop stop-color="#F96F08"/>
<stop offset="0.1836" stop-color="#FA7B07" stop-opacity="0.8164"/>
<stop offset="0.5197" stop-color="#FC9D04" stop-opacity="0.4803"/>
<stop offset="0.968" stop-color="#FFD200" stop-opacity="0.032"/>
<stop offset="1" stop-color="#FFD600" stop-opacity="0"/>
</linearGradient>
<linearGradient id="paint21_linear_872_788" x1="21.6617" y1="10.8675" x2="22.2985" y2="6.36332" gradientUnits="userSpaceOnUse">
<stop stop-color="#FEB502"/>
<stop offset="1" stop-color="#FFF6B3"/>
</linearGradient>
<linearGradient id="paint22_linear_872_788" x1="25.0489" y1="5.5818" x2="25.8124" y2="4.08217" gradientUnits="userSpaceOnUse">
<stop stop-color="#FEB502"/>
<stop offset="1" stop-color="#FFF6B3"/>
</linearGradient>
<linearGradient id="paint23_linear_872_788" x1="25.3126" y1="21.6853" x2="28.9498" y2="18.0959" gradientUnits="userSpaceOnUse">
<stop stop-color="#FEB502"/>
<stop offset="1" stop-color="#FFE900"/>
</linearGradient>
<linearGradient id="paint24_linear_872_788" x1="12.6411" y1="9.76441" x2="14.7942" y2="7.6396" gradientUnits="userSpaceOnUse">
<stop stop-color="#FEB502"/>
<stop offset="1" stop-color="#FFE900"/>
</linearGradient>
<linearGradient id="paint25_linear_872_788" x1="6.77803" y1="24.2261" x2="7.09513" y2="37.5482" gradientUnits="userSpaceOnUse">
<stop stop-color="#FD4454"/>
<stop offset="1" stop-color="#990028" stop-opacity="0.3"/>
</linearGradient>
<linearGradient id="paint26_linear_872_788" x1="6.60512" y1="28.7454" x2="6.78496" y2="36.3011" gradientUnits="userSpaceOnUse">
<stop stop-color="#FFE239"/>
<stop offset="1" stop-color="#FFF080"/>
</linearGradient>
<clipPath id="clip0_872_788">
<rect width="33.3333" height="40" fill="white" transform="translate(0.833252)"/>
</clipPath>
</defs>
</svg>
